<svg width="808" height="106" viewBox="0 0 808 106" fill="none" xmlns="http://www.w3.org/2000/svg">
<path d="M391 0V51.5C391 59.232 384.732 65.5 377 65.5H15C7.26801 65.5 1 71.768 1 79.5V106" stroke="#44B58D" stroke-width="2"/>
<path d="M802 106L796.226 96H807.774L802 106ZM413 0V51.5H411V0L413 0ZM426 64.5L788 64.5V66.5L426 66.5V64.5ZM803 79.5V97H801V79.5H803ZM788 64.5C796.284 64.5 803 71.2157 803 79.5H801C801 72.3203 795.18 66.5 788 66.5V64.5ZM413 51.5C413 58.6797 418.82 64.5 426 64.5V66.5C417.716 66.5 411 59.7843 411 51.5H413Z" fill="#44B58D"/>
</svg>
