<svg width="35" height="65" viewBox="0 0 35 65" fill="none" xmlns="http://www.w3.org/2000/svg">
<path d="M34.5649 21.6408C34.2963 21.3734 33.9213 21.206 33.509 21.206C33.1773 21.206 32.8746 21.3143 32.6274 21.4946V15.9839C32.6274 14.3661 31.4855 13.0202 29.9801 12.7476C29.2825 12.3022 27.1602 10.2194 26.4094 1.1694C26.4094 1.1694 26.048 0 25.2341 0H16.2121C16.0387 0 15.9413 0 15.9413 0H7.19017C6.37622 0 6.01489 1.1694 6.01489 1.1694C5.27396 10.0846 3.0276 12.3287 2.23571 12.8506C0.938709 13.2717 0 14.5176 0 15.9839V48.3098C0 49.9306 1.14486 51.2757 2.65105 51.5454C3.6354 52.4966 5.38046 55.2361 6.01489 62.8842C6.01489 62.8842 6.37622 64.0566 7.19017 64.0566H15.9406C15.9406 64.0566 16.0379 64.0566 16.2114 64.0566H25.2326C26.0465 64.0566 26.4078 62.8842 26.4078 62.8842C27.059 55.0521 28.7364 52.4398 29.6249 51.5893C31.2992 51.481 32.6258 50.0518 32.6258 48.3098V42.6309C32.7103 42.6635 32.8023 42.6824 32.8974 42.6824C33.3097 42.6824 33.6429 42.3499 33.6429 41.9394V34.1051C33.6429 33.8998 33.5592 33.7135 33.4261 33.5787C33.2899 33.4461 33.1028 33.3628 32.8974 33.3628C32.8023 33.3628 32.7103 33.381 32.6258 33.4136V27.8059C32.8731 27.9869 33.1766 28.0944 33.5075 28.0944C34.3329 28.0944 35 27.4302 35 26.6085V22.6913C35.0015 22.2808 34.8334 21.9081 34.5649 21.6408ZM31.344 47.0366C31.344 48.709 30.0204 50.0654 28.3864 50.0654H4.24093C2.60769 50.0654 1.28331 48.709 1.28331 47.0366V17.2563C1.28331 15.584 2.60769 14.2275 4.24093 14.2275H28.3872C30.0204 14.2275 31.3448 15.584 31.3448 17.2563L31.344 47.0366Z" fill="white"/>
<path d="M17.5 35C19.5059 35 21.1321 33.3739 21.1321 31.3679C21.1321 29.362 19.5059 27.7358 17.5 27.7358C15.4941 27.7358 13.8679 29.362 13.8679 31.3679C13.8679 33.3739 15.4941 35 17.5 35Z" fill="white"/>
<path d="M24.1038 35.6604C25.3803 35.6604 26.4151 34.6255 26.4151 33.349C26.4151 32.0725 25.3803 31.0377 24.1038 31.0377C22.8273 31.0377 21.7925 32.0725 21.7925 33.349C21.7925 34.6255 22.8273 35.6604 24.1038 35.6604Z" fill="white"/>
<path d="M19.4811 40.9434C20.7576 40.9434 21.7924 39.9086 21.7924 38.6321C21.7924 37.3556 20.7576 36.3207 19.4811 36.3207C18.2046 36.3207 17.1698 37.3556 17.1698 38.6321C17.1698 39.9086 18.2046 40.9434 19.4811 40.9434Z" fill="white"/>
<path d="M20.8019 27.7359C22.0784 27.7359 23.1132 26.701 23.1132 25.4245C23.1132 24.148 22.0784 23.1132 20.8019 23.1132C19.5254 23.1132 18.4906 24.148 18.4906 25.4245C18.4906 26.701 19.5254 27.7359 20.8019 27.7359Z" fill="white"/>
<path d="M17.5 21.7925C18.7765 21.7925 19.8114 20.9055 19.8114 19.8113C19.8114 18.7172 18.7765 17.8302 17.5 17.8302C16.2235 17.8302 15.1887 18.7172 15.1887 19.8113C15.1887 20.9055 16.2235 21.7925 17.5 21.7925Z" fill="white"/>
<path d="M26.0849 29.717C26.9967 29.717 27.7358 28.9778 27.7358 28.066C27.7358 27.1543 26.9967 26.4151 26.0849 26.4151C25.1731 26.4151 24.434 27.1543 24.434 28.066C24.434 28.9778 25.1731 29.717 26.0849 29.717Z" fill="white"/>
<path d="M26.0849 40.9434C26.9967 40.9434 27.7358 40.3521 27.7358 39.6226C27.7358 38.8932 26.9967 38.3019 26.0849 38.3019C25.1731 38.3019 24.434 38.8932 24.434 39.6226C24.434 40.3521 25.1731 40.9434 26.0849 40.9434Z" fill="white"/>
<path d="M26.0849 24.434C26.9967 24.434 27.7358 23.8426 27.7358 23.1132C27.7358 22.3838 26.9967 21.7924 26.0849 21.7924C25.1731 21.7924 24.434 22.3838 24.434 23.1132C24.434 23.8426 25.1731 24.434 26.0849 24.434Z" fill="white"/>
<path d="M22.783 44.9057C23.6948 44.9057 24.434 44.3143 24.434 43.5849C24.434 42.8555 23.6948 42.2642 22.783 42.2642C21.8712 42.2642 21.1321 42.8555 21.1321 43.5849C21.1321 44.3143 21.8712 44.9057 22.783 44.9057Z" fill="white"/>
<path d="M22.1226 21.1321C22.6697 21.1321 23.1132 20.6886 23.1132 20.1415C23.1132 19.5944 22.6697 19.1509 22.1226 19.1509C21.5756 19.1509 21.1321 19.5944 21.1321 20.1415C21.1321 20.6886 21.5756 21.1321 22.1226 21.1321Z" fill="white"/>
<path d="M26.7453 19.8113C27.2924 19.8113 27.7359 19.3678 27.7359 18.8208C27.7359 18.2737 27.2924 17.8302 26.7453 17.8302C26.1983 17.8302 25.7548 18.2737 25.7548 18.8208C25.7548 19.3678 26.1983 19.8113 26.7453 19.8113Z" fill="white"/>
<path d="M6.93392 19.8113C7.481 19.8113 7.92449 19.3678 7.92449 18.8208C7.92449 18.2737 7.481 17.8302 6.93392 17.8302C6.38685 17.8302 5.94336 18.2737 5.94336 18.8208C5.94336 19.3678 6.38685 19.8113 6.93392 19.8113Z" fill="white"/>
<path d="M3.96223 33.0189C4.69167 33.0189 5.28299 32.5754 5.28299 32.0283C5.28299 31.4812 4.69167 31.0377 3.96223 31.0377C3.2328 31.0377 2.64148 31.4812 2.64148 32.0283C2.64148 32.5754 3.2328 33.0189 3.96223 33.0189Z" fill="white"/>
<path d="M6.27352 44.9057C6.8206 44.9057 7.26409 44.4622 7.26409 43.9151C7.26409 43.368 6.8206 42.9245 6.27352 42.9245C5.72645 42.9245 5.28296 43.368 5.28296 43.9151C5.28296 44.4622 5.72645 44.9057 6.27352 44.9057Z" fill="white"/>
<path d="M26.7453 44.9057C27.2924 44.9057 27.7359 44.4622 27.7359 43.9151C27.7359 43.368 27.2924 42.9245 26.7453 42.9245C26.1983 42.9245 25.7548 43.368 25.7548 43.9151C25.7548 44.4622 26.1983 44.9057 26.7453 44.9057Z" fill="white"/>
<path d="M16.8396 44.9057C17.3866 44.9057 17.8301 44.4622 17.8301 43.9151C17.8301 43.368 17.3866 42.9245 16.8396 42.9245C16.2925 42.9245 15.849 43.368 15.849 43.9151C15.849 44.4622 16.2925 44.9057 16.8396 44.9057Z" fill="white"/>
<path d="M28.7264 33.0189C29.2735 33.0189 29.717 32.5754 29.717 32.0283C29.717 31.4812 29.2735 31.0377 28.7264 31.0377C28.1793 31.0377 27.7358 31.4812 27.7358 32.0283C27.7358 32.5754 28.1793 33.0189 28.7264 33.0189Z" fill="white"/>
<path d="M9.57548 35.6604C10.852 35.6604 11.8868 34.6255 11.8868 33.349C11.8868 32.0725 10.852 31.0377 9.57548 31.0377C8.29898 31.0377 7.26416 32.0725 7.26416 33.349C7.26416 34.6255 8.29898 35.6604 9.57548 35.6604Z" fill="white"/>
<path d="M14.1982 40.9434C15.4747 40.9434 16.5095 39.9086 16.5095 38.6321C16.5095 37.3556 15.4747 36.3207 14.1982 36.3207C12.9217 36.3207 11.8868 37.3556 11.8868 38.6321C11.8868 39.9086 12.9217 40.9434 14.1982 40.9434Z" fill="white"/>
<path d="M12.8774 27.7359C14.1539 27.7359 15.1887 26.701 15.1887 25.4245C15.1887 24.148 14.1539 23.1132 12.8774 23.1132C11.6009 23.1132 10.566 24.148 10.566 25.4245C10.566 26.701 11.6009 27.7359 12.8774 27.7359Z" fill="white"/>
<path d="M7.5943 29.717C8.50609 29.717 9.24525 28.9778 9.24525 28.066C9.24525 27.1543 8.50609 26.4151 7.5943 26.4151C6.68251 26.4151 5.94336 27.1543 5.94336 28.066C5.94336 28.9778 6.68251 29.717 7.5943 29.717Z" fill="white"/>
<path d="M7.5943 40.9434C8.50609 40.9434 9.24525 40.3521 9.24525 39.6226C9.24525 38.8932 8.50609 38.3019 7.5943 38.3019C6.68251 38.3019 5.94336 38.8932 5.94336 39.6226C5.94336 40.3521 6.68251 40.9434 7.5943 40.9434Z" fill="white"/>
<path d="M7.5943 24.434C8.50609 24.434 9.24525 23.8426 9.24525 23.1132C9.24525 22.3838 8.50609 21.7924 7.5943 21.7924C6.68251 21.7924 5.94336 22.3838 5.94336 23.1132C5.94336 23.8426 6.68251 24.434 7.5943 24.434Z" fill="white"/>
<path d="M11.5566 44.9057C12.4684 44.9057 13.2075 44.3143 13.2075 43.5849C13.2075 42.8555 12.4684 42.2642 11.5566 42.2642C10.6448 42.2642 9.90564 42.8555 9.90564 43.5849C9.90564 44.3143 10.6448 44.9057 11.5566 44.9057Z" fill="white"/>
<path d="M11.5566 21.1321C12.1037 21.1321 12.5472 20.6886 12.5472 20.1415C12.5472 19.5944 12.1037 19.1509 11.5566 19.1509C11.0095 19.1509 10.566 19.5944 10.566 20.1415C10.566 20.6886 11.0095 21.1321 11.5566 21.1321Z" fill="white"/>
</svg>
