<svg width="66" height="141" viewBox="0 0 66 141" fill="none" xmlns="http://www.w3.org/2000/svg">
<g filter="url(#filter0_i_28_203)">
<path d="M3.9807 31.4223V49.4213C3.9807 50.4021 4.78325 51.2047 5.76413 51.2047H12.1221C12.4472 50.2898 12.9829 49.4777 13.6719 48.8268H6.35861V22.3725H25.068V47.466C26.6779 47.5076 28.2473 47.5338 29.743 47.5338C32.1554 47.5338 34.3353 47.4785 36.3161 47.3816L37.0134 42.2447C37.7845 42.5336 38.5959 42.6846 39.4074 42.684H39.4086H39.4121C40.2224 42.684 41.0321 42.533 41.8025 42.2441L42.4333 46.8923C50.6941 45.9281 53.6463 44.1417 54.5172 43.4367C54.1748 42.9028 53.6166 42.3898 53.018 41.9719L54.1617 41.1955C54.8246 41.7162 55.406 42.3291 55.7591 42.9682C56.0973 43.5811 55.9951 43.744 55.9202 43.8629C55.7526 44.1298 51.4301 50.3718 18.1037 48.4879C15.4791 48.3375 13.2355 50.3457 13.0875 52.9679C12.9395 55.5901 14.9452 57.8361 17.5675 57.9841C21.9898 58.2338 26.0941 58.3592 29.8904 58.3592C48.8025 58.3592 59.9983 55.2465 63.973 48.9249C65.9841 45.7266 66.0245 41.8785 64.0847 38.3675C63.5711 37.439 62.9297 36.558 62.1979 35.7382C59.4472 32.6576 55.3721 30.4812 51.5698 30.1947C51.3481 30.162 51.1234 30.1394 50.8921 30.1394H27.9245C27.7628 30.1394 27.6035 30.1483 27.4459 30.1643V21.7775C27.4459 20.7966 26.6434 19.994 25.6625 19.994H7.37814C5.90086 19.0185 3.9379 18.9049 2.31676 19.8751C0.0619048 21.2228 -0.673464 24.1429 0.674811 26.3971C1.81442 28.3042 2.91302 29.967 3.9807 31.4223ZM37.1484 35.004H39.408H41.6664L42.7959 39.4626L42.6241 39.7337C41.6932 40.51 40.553 40.8988 39.4062 40.9C38.2601 40.8988 37.1216 40.5106 36.1913 39.736L36.0183 39.4626L37.1484 35.004Z" fill="#44B58D"/>
<path d="M44.0652 58.9234L45.055 66.2141L39.4075 73.3478L33.7599 66.2141L34.6582 59.5934C33.1239 59.641 31.5372 59.6665 29.8893 59.6665H29.8762C27.8021 59.6665 25.6114 59.6273 23.3298 59.5518V133.65C23.3298 137.711 26.6215 141 30.6794 141C34.7385 141 38.0301 137.711 38.0301 133.65V79.9864H40.7855V133.65C40.7855 137.711 44.0771 141 48.135 141C52.1941 141 55.4857 137.711 55.4857 133.65V56.4367C52.3445 57.5603 48.5428 58.3878 44.0652 58.9234Z" fill="#44B58D"/>
<path d="M39.4072 26.7515C46.7945 26.7515 52.783 20.763 52.783 13.3757C52.783 5.98852 46.7945 0 39.4072 0C32.02 0 26.0315 5.98852 26.0315 13.3757C26.0315 20.763 32.02 26.7515 39.4072 26.7515Z" fill="#44B58D"/>
</g>
<defs>
<filter id="filter0_i_28_203" x="0" y="0" width="65.511" height="145" filterUnits="userSpaceOnUse" color-interpolation-filters="sRGB">
<feFlood flood-opacity="0" result="BackgroundImageFix"/>
<feBlend mode="normal" in="SourceGraphic" in2="BackgroundImageFix" result="shape"/>
<feColorMatrix in="SourceAlpha" type="matrix" values="0 0 0 0 0 0 0 0 0 0 0 0 0 0 0 0 0 0 127 0" result="hardAlpha"/>
<feOffset dy="4"/>
<feGaussianBlur stdDeviation="3.5"/>
<feComposite in2="hardAlpha" operator="arithmetic" k2="-1" k3="1"/>
<feColorMatrix type="matrix" values="0 0 0 0 0 0 0 0 0 0 0 0 0 0 0 0 0 0 0.25 0"/>
<feBlend mode="normal" in2="shape" result="effect1_innerShadow_28_203"/>
</filter>
</defs>
</svg>
