<svg width="54" height="51" viewBox="0 0 54 51" fill="none" xmlns="http://www.w3.org/2000/svg">
<path d="M15.9505 28.7424C14.9899 27.5511 13.4256 27.5003 12.0218 27.5648C10.265 27.5647 8.77852 28.8775 8.55652 30.615C7.83243 36.0509 7.82066 41.5769 8.55654 47.015C8.77852 48.7525 10.265 50.0653 12.0218 50.0653C14.6245 50.3743 17.0596 49.0578 16.7999 46.1558C16.1918 41.2813 16.1918 36.3487 16.7999 31.4837C16.9254 30.4895 16.6165 29.4953 15.9505 28.7424Z" fill="white"/>
<path d="M45.6909 33.1439C45.6288 32.3107 45.5102 31.4478 45.411 30.6148C45.1889 28.8773 43.7024 27.5646 41.9456 27.5646H40.6232C38.5911 27.5158 36.8669 29.4743 37.1675 31.4836C37.7756 36.3486 37.7756 41.2812 37.1675 46.1558C36.9053 49.0467 39.3424 50.3796 41.9457 50.0649C43.7024 50.0651 45.1889 48.7524 45.411 47.0149C46.0226 42.4259 46.1363 37.7583 45.6909 33.1439Z" fill="white"/>
<path d="M52.6601 34.949C52.3123 34.5144 51.9067 34.1278 51.4621 33.8094V26.8218C51.4733 22.783 50.4287 18.8086 48.5673 15.2767C49.6043 14.1607 49.7338 12.2866 48.8086 11.0681C38.392 -3.68727 15.6015 -3.69158 5.19756 11.0684C4.27127 12.2931 4.39009 14.1708 5.44107 15.2885C3.54973 18.8214 2.54133 22.7878 2.54133 26.8218V33.7825C-1.74336 36.6467 -0.34351 43.8474 4.74418 44.8623C4.7439 44.8624 6.42347 45.2582 6.42347 45.2582C5.97273 40.9811 5.97262 36.6475 6.42347 32.3717L4.74391 32.7675C4.65646 32.787 4.55924 32.816 4.47189 32.8454V26.8218C4.47189 23.1443 5.3809 19.5286 7.08763 16.3016C8.43479 16.6812 9.89289 16.1706 10.7672 14.9968C14.5414 9.82291 20.613 6.73402 27.0031 6.73402C33.3933 6.73402 39.4648 9.82292 43.2391 14.9968C43.9244 15.9235 44.9669 16.4254 46.0287 16.4254C46.3244 16.4254 46.6294 16.3868 46.9161 16.3021C48.6226 19.5289 49.5316 23.1445 49.5316 26.8218V32.8541C49.3312 32.7775 47.78 32.4337 47.5442 32.3717C47.9203 35.9707 47.9923 39.6209 47.7179 43.2311C47.6793 43.9068 47.6214 44.5825 47.5442 45.2582L49.2237 44.8624C53.5803 43.9646 55.4987 38.3349 52.6601 34.949Z" fill="white"/>
</svg>
