<svg width="53" height="53" viewBox="0 0 53 53" fill="none" xmlns="http://www.w3.org/2000/svg">
<path d="M5.8279 20.8844C6.77592 20.8844 7.50089 20.1037 7.50089 19.2115V14.304C7.50089 10.5677 10.5123 7.55632 14.2486 7.55632H17.5946V9.8985C17.5946 10.5119 17.9292 11.0696 18.4311 11.3484C18.7099 11.5157 18.9887 11.5715 19.2676 11.5715C19.5464 11.5715 19.881 11.5157 20.1598 11.3484L26.9633 7.27749C27.4652 6.94289 27.7998 6.441 27.7998 5.82757C27.7998 5.21414 27.4652 4.65648 26.9633 4.37765L20.1598 0.250948C19.6579 -0.0836493 18.9887 -0.0836493 18.4311 0.250948C17.8734 0.529779 17.5946 1.14321 17.5946 1.70087V4.15458H14.2486C8.67198 4.15458 4.15491 8.67164 4.15491 14.2483V19.1557C4.09915 20.1037 4.87987 20.8844 5.8279 20.8844Z" fill="white"/>
<path d="M19.2115 45.5331H14.304C10.5677 45.5331 7.55632 42.5217 7.55632 38.7854V35.4394H9.8985C10.5119 35.4394 11.0696 35.1048 11.3484 34.6029C11.6273 34.0453 11.6273 33.4319 11.3484 32.8742L7.27749 26.0707C6.94289 25.5688 6.441 25.2342 5.82757 25.2342C5.21414 25.2342 4.65648 25.5688 4.37765 26.0707L0.250948 32.8742C-0.0836493 33.3761 -0.0836493 34.0453 0.250948 34.6029C0.529779 35.1606 1.14321 35.4394 1.70087 35.4394H4.15458V38.7854C4.15458 44.362 8.67164 48.8791 14.2483 48.8791H19.1557C20.1037 48.8791 20.8287 48.0984 20.8287 47.2061C20.8287 46.3138 20.1037 45.5331 19.2115 45.5331Z" fill="white"/>
<path d="M47.2063 32.1492C46.2582 32.1492 45.5333 32.93 45.5333 33.8222V38.7296C45.5333 42.466 42.5219 45.4774 38.7856 45.4774H35.4396V43.1352C35.4396 42.5217 35.105 41.9641 34.6031 41.6852C34.0454 41.4064 33.432 41.4064 32.8743 41.6852L26.0709 45.7562C25.569 46.0908 25.2344 46.5927 25.2344 47.2061C25.2344 47.8195 25.569 48.3772 26.0709 48.656L32.8743 52.727C33.1532 52.8943 33.432 52.95 33.7666 52.95C34.0454 52.95 34.3243 52.8943 34.6031 52.727C35.1608 52.4481 35.4396 51.8347 35.4396 51.277V48.8233H38.7856C44.3622 48.8233 48.8792 44.3063 48.8792 38.7296V33.8222C48.935 32.93 48.1543 32.1492 47.2063 32.1492Z" fill="white"/>
<path d="M52.7826 18.4307C52.5037 17.873 51.8903 17.5942 51.3326 17.5942H48.8789V14.2482C48.8789 8.6716 44.3619 4.15454 38.7852 4.15454H33.8778C32.9298 4.15454 32.2048 4.93527 32.2048 5.82753C32.2048 6.71979 32.9856 7.50051 33.8778 7.50051H38.7852C42.4658 7.50051 45.4772 10.5119 45.4772 14.2482V17.5942H43.135C42.5216 17.5942 41.9639 17.9288 41.6851 18.4307C41.4063 18.9883 41.4063 19.6018 41.6851 20.1594L45.756 26.9629C46.0906 27.4648 46.5925 27.7994 47.2059 27.7994C47.8194 27.7994 48.377 27.4648 48.6559 26.9629L52.7268 20.1594C53.0614 19.6018 53.0614 18.9326 52.7826 18.4307Z" fill="white"/>
<path d="M34.9931 34.9932V20.3825C34.9931 18.2076 33.2086 16.4788 31.0895 16.4788H29.8626V15.5866C29.8626 14.8059 29.2492 14.1367 28.4127 14.1367H24.6764C23.8956 14.1367 23.2264 14.7501 23.2264 15.5866V16.4788H21.9996C19.8247 16.4788 18.0959 18.2634 18.0959 20.3825V34.9374C18.0959 37.1123 19.8805 38.8411 21.9996 38.8411H31.0895C33.2086 38.8968 34.9931 37.1123 34.9931 34.9932ZM20.8843 34.9932V20.3825C20.8843 19.769 21.3862 19.3229 21.9438 19.3229H31.0337C31.6471 19.3229 32.0933 19.8248 32.0933 20.3825V34.9374C32.0933 35.5509 31.5914 35.997 31.0337 35.997H21.9996C21.3862 36.0528 20.8843 35.5509 20.8843 34.9932Z" fill="white"/>
<path d="M30.0303 30.3089H23.0038C22.948 30.3089 22.948 30.3647 22.948 30.3647V33.9337C22.948 33.9895 23.0038 33.9895 23.0038 33.9895H30.0861C30.1418 33.9895 30.1418 33.9337 30.1418 33.9337V30.3647C30.1418 30.3089 30.0861 30.3089 30.0303 30.3089Z" fill="white"/>
</svg>
