<svg width="145" height="82" viewBox="0 0 145 82" fill="none" xmlns="http://www.w3.org/2000/svg">
<g filter="url(#filter0_i_28_215)">
<path d="M132.018 33.6214C139.188 29.3925 141.572 20.1521 137.343 12.9822C133.114 5.81234 123.874 3.42816 116.704 7.65699C109.534 11.8858 107.15 21.1263 111.379 28.2962C115.607 35.466 124.848 37.8502 132.018 33.6214Z" fill="#44B58D"/>
<path d="M49.25 30.4781C49.4464 30.9284 49.7017 31.3331 49.9958 31.6976C49.4718 31.6842 48.9452 31.7083 48.4198 31.7954C45.8261 32.2316 43.5653 33.8793 42.3606 36.2184L27.8915 64.2895H8.37496C3.74893 64.2895 0 68.0405 0 72.6672C0 77.2919 3.74893 81.0421 8.37496 81.0421H70.2441C70.9007 81.0421 71.5359 80.959 72.1483 80.8163C72.7769 80.7607 73.4188 80.6234 74.0546 80.3915C78.4026 78.8142 82.7345 77.2001 86.9953 75.4666C86.9906 75.5571 86.9819 75.6462 86.9819 75.7367C86.9819 78.697 89.3827 81.0977 92.3437 81.0977L122.384 81.0964C123.935 81.0964 125.418 80.419 126.434 79.2471C127.45 78.0731 127.91 76.5092 127.689 74.9735L123.92 48.7424C123.844 46.164 122.978 43.4758 121.831 42.3849C115.778 36.5334 109.726 30.6811 103.672 24.8303C103.31 24.4852 102.835 24.193 102.293 23.9532C99.6814 22.1735 91.4873 17.4309 78.485 17.4249C71.0555 17.4222 62.1311 18.9935 52.0147 23.4185C49.3016 24.6045 48.0641 27.7637 49.25 30.4781ZM46.7374 64.2895L52.1205 53.8468L61.1649 62.4831C61.3713 63.0855 61.5776 63.6878 61.784 64.2895H46.7374ZM98.3768 70.3756C104.141 67.5205 109.66 64.2788 114.764 60.3992L116.197 70.3756H98.3768ZM56.309 33.2428C65.1738 29.3725 72.5544 28.1497 78.485 28.1477C84.1469 28.149 88.4942 29.2734 91.5322 30.4413C87.3437 38.7492 82.5462 44.5746 70.8022 48.5246L55.5907 33.9992C55.4413 33.8565 55.2792 33.7312 55.121 33.6006C55.521 33.5275 55.9197 33.4129 56.309 33.2428Z" fill="#44B58D"/>
</g>
<defs>
<filter id="filter0_i_28_215" x="0" y="5.56476" width="139.435" height="79.533" filterUnits="userSpaceOnUse" color-interpolation-filters="sRGB">
<feFlood flood-opacity="0" result="BackgroundImageFix"/>
<feBlend mode="normal" in="SourceGraphic" in2="BackgroundImageFix" result="shape"/>
<feColorMatrix in="SourceAlpha" type="matrix" values="0 0 0 0 0 0 0 0 0 0 0 0 0 0 0 0 0 0 127 0" result="hardAlpha"/>
<feOffset dy="4"/>
<feGaussianBlur stdDeviation="3.5"/>
<feComposite in2="hardAlpha" operator="arithmetic" k2="-1" k3="1"/>
<feColorMatrix type="matrix" values="0 0 0 0 0 0 0 0 0 0 0 0 0 0 0 0 0 0 0.25 0"/>
<feBlend mode="normal" in2="shape" result="effect1_innerShadow_28_215"/>
</filter>
</defs>
</svg>
