<svg width="72" height="40" viewBox="0 0 72 40" fill="none" xmlns="http://www.w3.org/2000/svg">
<path d="M36.6537 1.92114L22.2334 22.578H29.3534L26.6879 37.6525L41.1083 16.9972H33.9899L36.6537 1.92114Z" fill="#44B58D"/>
<path d="M63.3413 7.47593V2.33168C63.3413 1.04245 62.2973 4.4978e-07 61.0104 4.4978e-07H2.33168C1.04404 -0.000790486 0 1.04166 0 2.33089V37.6691C0 38.9544 1.04404 40 2.33168 40H61.0104C62.2973 40 63.3413 38.9544 63.3413 37.6691V32.9433H71.1842V7.47593H63.3413ZM26.6878 37.6525L29.3532 22.5781H22.2332L36.6535 1.92118L33.9889 16.9964H41.1073L26.6878 37.6525Z" fill="white"/>
</svg>
