<svg width="66" height="66" viewBox="0 0 66 66" fill="none" xmlns="http://www.w3.org/2000/svg">
<path fill-rule="evenodd" clip-rule="evenodd" d="M61.9164 19.2518L55.6524 25.5188V31.0733H53.7339V25.119C53.7345 24.8641 53.8334 24.6192 54.0101 24.4355L60.5503 17.8923C60.2609 17.2823 60.1962 16.5898 60.3675 15.9368C60.5388 15.2837 60.9352 14.7123 61.4866 14.3231C62.0381 13.934 62.7092 13.7523 63.3815 13.81C64.0539 13.8677 64.6842 14.1611 65.1614 14.6385C65.6386 15.1159 65.9319 15.7465 65.9895 16.4192C66.0472 17.0919 65.8655 17.7633 65.4766 18.315C65.0877 18.8667 64.5164 19.2632 63.8637 19.4346C63.211 19.606 62.5188 19.5413 61.9092 19.2518H61.9164ZM65.9786 33.727V36.5334C65.9813 36.93 65.8542 37.3167 65.6168 37.6344C65.3793 37.9521 65.0444 38.1833 64.6633 38.2928L59.4675 39.8195C59.1814 39.8989 58.9194 40.0481 58.7051 40.2536C58.4908 40.4592 58.3308 40.7147 58.2394 40.9973C57.7801 42.4515 57.1941 43.8625 56.4881 45.2141C56.343 45.4781 56.267 45.7744 56.267 46.0756C56.267 46.3769 56.343 46.6732 56.4881 46.9372L59.0824 51.6992C59.2762 52.0469 59.3506 52.4485 59.2941 52.8426C59.2377 53.2366 59.0535 53.6012 58.7699 53.8803L53.8284 58.8241C53.5494 59.1079 53.185 59.2922 52.7911 59.3486C52.3973 59.4051 51.9958 59.3307 51.6483 59.1368L46.8885 56.5413C46.6251 56.3949 46.3287 56.318 46.0274 56.318C45.7261 56.318 45.4297 56.3949 45.1663 56.5413C43.8244 57.2302 42.4266 57.8042 40.9878 58.2571C40.7 58.3443 40.4386 58.5026 40.2278 58.7173C40.0171 58.932 39.8636 59.1962 39.7815 59.4857L38.2555 64.684C38.1461 65.0653 37.915 65.4003 37.5974 65.6379C37.2799 65.8755 36.8934 66.0027 36.4969 66H29.4989C29.1024 66.0027 28.7159 65.8755 28.3984 65.6379C28.0809 65.4003 27.8497 65.0653 27.7403 64.684L26.2143 59.4857C26.1315 59.1954 25.977 58.9306 25.7648 58.7158C25.5527 58.5011 25.2899 58.3433 25.0007 58.2571C23.5472 57.7976 22.1369 57.2113 20.7859 56.5049C20.5221 56.3598 20.2259 56.2837 19.9248 56.2837C19.6237 56.2837 19.3275 56.3598 19.0637 56.5049L14.3039 59.1004C13.9564 59.2943 13.5549 59.3688 13.1611 59.3123C12.7672 59.2558 12.4028 59.0715 12.1238 58.7878L7.18232 53.844C6.8987 53.5648 6.71453 53.2002 6.65807 52.8062C6.60162 52.4122 6.67602 52.0105 6.86984 51.6629L9.46412 46.9008C9.61047 46.6373 9.68726 46.3408 9.68726 46.0393C9.68726 45.7378 9.61047 45.4413 9.46412 45.1778C8.77549 43.8352 8.20178 42.4368 7.74913 40.9973C7.6619 40.7093 7.50372 40.4479 7.28913 40.237C7.07454 40.0261 6.81042 39.8726 6.52103 39.7905L1.32521 38.2637C0.944103 38.1542 0.609256 37.923 0.371769 37.6053C0.134283 37.2876 0.00719925 36.901 0.00990966 36.5043V33.727C0.00394175 33.6337 0.0171911 33.5401 0.0488371 33.4521C0.0804832 33.364 0.129852 33.2835 0.193887 33.2153C0.257922 33.1472 0.335261 33.0929 0.421112 33.0558C0.506964 33.0188 0.599502 32.9998 0.692996 33H15.2704C15.2704 37.7029 17.1377 42.2132 20.4616 45.5386C23.7854 48.8641 28.2936 50.7323 32.9943 50.7323C37.6949 50.7323 42.2031 48.8641 45.527 45.5386C48.8508 42.2132 50.7182 37.7029 50.7182 33H65.2955C65.389 32.9998 65.4816 33.0188 65.5674 33.0558C65.6533 33.0929 65.7306 33.1472 65.7946 33.2153C65.8587 33.2835 65.9081 33.364 65.9397 33.4521C65.9713 33.5401 65.9846 33.6337 65.9786 33.727ZM46.7505 33H19.2381C19.2381 36.6501 20.6874 40.1507 23.2672 42.7317C25.847 45.3127 29.3459 46.7627 32.9943 46.7627C36.6426 46.7627 40.1416 45.3127 42.7214 42.7317C45.3012 40.1507 46.7505 36.6501 46.7505 33ZM2.85853 13.8281C2.43074 13.8267 2.00812 13.9216 1.62203 14.1059C1.23593 14.2902 0.896282 14.5591 0.628287 14.8927C0.360291 15.2263 0.170833 15.6159 0.0739766 16.0328C-0.0228804 16.4497 -0.0246491 16.883 0.0688018 17.3007C0.162253 17.7183 0.348523 18.1096 0.613787 18.4453C0.87905 18.7811 1.21649 19.0528 1.60107 19.2402C1.98565 19.4276 2.40748 19.526 2.83526 19.528C3.26304 19.53 3.68578 19.4356 4.07209 19.2518L10.3361 25.5188V31.0733H12.2546V25.119C12.254 24.8641 12.1551 24.6192 11.9785 24.4355L5.43827 17.8923C5.6446 17.4584 5.73766 16.9794 5.70877 16.4998C5.67988 16.0202 5.52998 15.5558 5.27306 15.1499C5.01614 14.7441 4.66059 14.4099 4.23962 14.1788C3.81865 13.9476 3.34599 13.827 2.86579 13.8281H2.85853ZM15.641 5.69993C15.2149 5.70184 14.7946 5.79937 14.4112 5.98532C14.0278 6.17128 13.6909 6.44092 13.4254 6.7744C13.16 7.10787 12.9727 7.49668 12.8774 7.91218C12.782 8.32768 12.781 8.75928 12.8745 9.1752C12.968 9.59112 13.1536 9.98076 13.4176 10.3154C13.6816 10.6501 14.0172 10.9212 14.3998 11.1089C14.7824 11.2965 15.2022 11.3959 15.6283 11.3997C16.0544 11.4035 16.4759 11.3116 16.8618 11.1309L23.1186 17.3906V31.0733H25.0443V17.0053C25.043 16.7513 24.9411 16.5081 24.7609 16.3291L18.2207 9.78585C18.4248 9.35081 18.516 8.8713 18.4857 8.39167C18.4554 7.91204 18.3047 7.4478 18.0476 7.04191C17.7904 6.63601 17.435 6.30157 17.0143 6.06954C16.5937 5.83752 16.1213 5.71539 15.641 5.71447V5.69993ZM32.9943 0C33.665 0.000511121 34.314 0.237779 34.827 0.670017C35.34 1.10225 35.6842 1.70174 35.7988 2.36289C35.9134 3.02405 35.7912 3.70446 35.4536 4.28431C35.1161 4.86416 34.5849 5.30624 33.9535 5.53271V31.0733H32.035V5.53271C31.4037 5.30624 30.8724 4.86416 30.5349 4.28431C30.1973 3.70446 30.0751 3.02405 30.1897 2.36289C30.3044 1.70174 30.6485 1.10225 31.1615 0.670017C31.6745 0.237779 32.3236 0.000511121 32.9943 0ZM50.3476 5.69993C50.7737 5.70184 51.1939 5.79937 51.5773 5.98532C51.9608 6.17128 52.2976 6.44092 52.5631 6.7744C52.8285 7.10787 53.0158 7.49668 53.1112 7.91218C53.2065 8.32768 53.2075 8.75928 53.114 9.1752C53.0205 9.59112 52.8349 9.98076 52.5709 10.3154C52.307 10.6501 51.9713 10.9212 51.5887 11.1089C51.2061 11.2965 50.7863 11.3959 50.3602 11.3997C49.9341 11.4035 49.5126 11.3116 49.1267 11.1309L42.87 17.3906V31.0733H40.9442V17.0053C40.9455 16.7513 41.0474 16.5081 41.2276 16.3291L47.7678 9.78585C47.5637 9.35081 47.4726 8.8713 47.5028 8.39167C47.5331 7.91204 47.6838 7.4478 47.941 7.04191C48.1982 6.63601 48.5535 6.30157 48.9742 6.06954C49.3949 5.83752 49.8672 5.71539 50.3476 5.71447V5.69993Z" fill="white"/>
</svg>
