<svg width="158" height="131" viewBox="0 0 158 131" fill="none" xmlns="http://www.w3.org/2000/svg">
<g filter="url(#filter0_i_28_129)">
<mask id="mask0_28_129" style="mask-type:luminance" maskUnits="userSpaceOnUse" x="0" y="0" width="158" height="131">
<path d="M0 0H157.973V130.513H0V0Z" fill="white"/>
</mask>
<g mask="url(#mask0_28_129)">
<path fill-rule="evenodd" clip-rule="evenodd" d="M132.309 3.56067L156.322 7.15372C157.316 7.29623 158.011 8.24632 157.854 9.24283L154.27 33.3167C154.127 34.3143 153.18 35.0107 152.186 34.852L128.171 31.26C127.177 31.1175 126.483 30.1674 126.64 29.1698L130.224 5.09592C130.382 4.11452 131.314 3.41815 132.309 3.56067ZM62.5559 29.6136C61.1828 30.0562 59.7462 30.5313 58.2299 31.0538C46.2318 35.2007 29.9701 41.6106 24.5068 44.0171C19.0446 46.4225 21.444 53.2448 27.0333 52.1684C29.8118 51.6297 43.1367 49.398 55.8466 47.2776C56.6672 47.1351 57.3145 46.7238 57.7722 46.0274C60.7564 41.5631 63.5036 37.4636 65.8244 34.0131C66.5352 32.9691 66.5029 31.6552 65.7458 30.6425C65.0038 29.6298 63.7567 29.2335 62.5559 29.6136ZM16.3922 96.6292H36.3477C37.7057 96.6292 38.8268 95.5204 38.8268 94.1439C38.8268 92.7825 37.7219 91.6585 36.3477 91.6585H9.0658C7.70886 91.6585 6.58778 90.5508 6.58778 89.1743C6.58778 87.8129 7.69271 86.6889 9.0658 86.6889H47.4939C48.852 86.6889 49.973 85.5812 49.973 84.2036C49.973 82.8422 48.8681 81.7193 47.4939 81.7193H27.4436C26.0856 81.7193 24.9645 80.6105 24.9645 79.234C24.9645 77.8726 26.0695 76.7487 27.4436 76.7487H46.9264C48.2833 76.7487 49.4044 75.6409 49.4044 74.2795C49.4044 72.9181 48.2995 71.7952 46.9264 71.7952H2.48251C1.10943 71.8579 0.00341797 70.734 0.00341797 69.3736C0.00341797 68.0122 1.10943 66.8883 2.48251 66.8883H76.2609C77.6179 66.8883 78.739 65.7806 78.739 64.4029C78.739 63.0415 77.634 61.9187 76.2609 61.9187H32.6851C31.327 61.9187 30.206 60.8099 30.206 59.4495C30.206 58.0881 31.312 56.9642 32.6851 56.9642H56.6511C66.2347 43.0983 73.8443 32.1777 75.0289 30.6263C78.487 26.0842 81.8965 25.0078 86.3647 25.8143C90.8329 26.6219 98.0957 28.0146 101.095 34.6307C104.095 41.2467 107.49 48.7341 108.358 50.1268C109.226 51.5346 110.963 50.3319 113.488 48.923C116.015 47.5151 128.882 42.0381 133.476 39.3001C138.07 36.5621 142.207 40.7091 139.476 44.5072C136.745 48.3216 117.088 67.4259 114.357 70.165C111.626 72.903 104.963 74.2482 100.827 69.2937C98.632 66.6669 96.7065 64.4353 95.3635 62.9314C94.8434 62.3451 94.1962 62.0288 93.4218 61.9813C92.6486 61.9338 91.9691 62.1713 91.3854 62.6777C69.0132 82.5582 39.837 109.37 17.4497 129.218C12.918 132.226 7.72394 128.743 10.7243 123.932C11.6558 122.444 17.7814 113.453 25.9284 101.568H16.3922C15.0342 101.568 13.9292 100.459 13.9292 99.0822C13.9131 97.7369 15.0342 96.6292 16.3922 96.6292ZM13.0924 56.9955H21.0488C22.4068 56.9955 23.5128 58.1032 23.5128 59.4808C23.5128 60.8423 22.4068 61.95 21.0488 61.95H13.0924C11.7344 61.95 10.6295 60.8423 10.6295 59.4808C10.6133 58.1032 11.7344 56.9955 13.0924 56.9955ZM55.5623 71.8579H60.5991C61.9561 71.8579 63.0771 72.9656 63.0771 74.3432C63.0771 75.7046 61.9722 76.8124 60.5991 76.8124H55.5623C54.2043 76.8124 53.0994 75.7046 53.0994 74.3432C53.0832 72.9656 54.2043 71.8579 55.5623 71.8579ZM95.3162 71.4627C98.7742 75.2458 102.374 79.2027 103.953 81.023C107.426 85.0274 107.947 89.1743 103.684 93.1787C99.4214 97.1831 81.9601 109.481 75.0289 114.023C68.0978 118.567 62.6356 115.226 66.5029 110.684C70.3712 106.141 77.5705 97.4519 80.4911 93.8427C81.8018 92.2448 80.2079 90.0283 77.5866 87.7805C76.9232 87.2115 76.5765 86.4676 76.5765 85.5963C76.5765 84.7262 76.9082 83.9661 77.5554 83.3971L91.2594 71.2403C92.4429 70.1963 94.2586 70.2913 95.3162 71.4627ZM106.147 0C113.142 0 118.809 5.68217 118.809 12.6934C118.809 19.7057 113.142 25.3878 106.147 25.3878C99.1533 25.3878 93.4854 19.7057 93.4854 12.6934C93.4854 5.68217 99.1533 0 106.147 0Z" fill="#44B58D"/>
</g>
</g>
<defs>
<filter id="filter0_i_28_129" x="0.00341797" y="0" width="157.872" height="134.339" filterUnits="userSpaceOnUse" color-interpolation-filters="sRGB">
<feFlood flood-opacity="0" result="BackgroundImageFix"/>
<feBlend mode="normal" in="SourceGraphic" in2="BackgroundImageFix" result="shape"/>
<feColorMatrix in="SourceAlpha" type="matrix" values="0 0 0 0 0 0 0 0 0 0 0 0 0 0 0 0 0 0 127 0" result="hardAlpha"/>
<feOffset dy="4"/>
<feGaussianBlur stdDeviation="2"/>
<feComposite in2="hardAlpha" operator="arithmetic" k2="-1" k3="1"/>
<feColorMatrix type="matrix" values="0 0 0 0 0 0 0 0 0 0 0 0 0 0 0 0 0 0 0.25 0"/>
<feBlend mode="normal" in2="shape" result="effect1_innerShadow_28_129"/>
</filter>
</defs>
</svg>
