<svg width="69" height="70" viewBox="0 0 69 70" fill="none" xmlns="http://www.w3.org/2000/svg">
<path d="M23.241 44.6756H45.7522V22.1644H23.241V44.6756ZM43.5011 24.4156V42.4245H25.4921V24.4156H43.5011Z" fill="white"/>
<path d="M68.8638 26.2164C68.6387 25.316 68.1135 24.6407 67.2881 24.1154C66.5377 23.6652 65.6372 23.5151 64.7368 23.7402C63.6112 24.0404 62.7858 24.8658 62.4106 25.9163H50.0294V22.1644H56.4076C57.0079 23.8152 58.7338 24.7157 60.4596 24.3405C61.3601 24.1154 62.0354 23.5901 62.5607 22.7647C63.0109 22.0143 63.161 21.1139 62.9359 20.2134C62.7108 19.313 62.1855 18.6377 61.3601 18.1124C60.6097 17.6622 59.7093 17.5121 58.8088 17.7372C57.6833 18.0374 56.8579 18.8628 56.4827 19.9133H50.1045V17.6622H41.8504V7.53213H51.9804C52.5057 9.18295 54.2315 10.1584 55.9574 9.70821C57.7583 9.25799 58.8839 7.45709 58.4336 5.65619C58.2085 4.75574 57.6833 4.00537 56.9329 3.55514C56.1825 3.10492 55.2821 2.95484 54.3816 3.17996C53.2561 3.48011 52.3556 4.30552 51.9804 5.35604H39.7493V17.6622H35.2471V12.6347C35.9975 12.3345 36.5978 11.8843 37.048 11.1339C37.4982 10.3835 37.6483 9.4831 37.4232 8.58265C36.9729 6.78175 35.097 5.65619 33.2961 6.18145C32.3957 6.40656 31.7203 6.93183 31.1951 7.75724C30.7448 8.50761 30.5948 9.40806 30.8199 10.3085C31.12 11.4341 31.9454 12.2595 32.996 12.6347V17.6622H29.2441V6.63168C30.8949 6.03138 31.7954 4.30552 31.4202 2.57966C31.1951 1.67921 30.6698 1.00387 29.8444 0.478611C29.094 0.0283862 28.1936 -0.121689 27.2931 0.103424C26.3927 0.328536 25.7173 0.853797 25.1921 1.67921C24.7418 2.42958 24.5918 3.33003 24.8169 4.23048C25.117 5.35604 25.9424 6.18145 26.993 6.55664V17.5871H23.2411V12.5596C24.8919 11.9593 25.7924 10.2335 25.4172 8.50761C25.1921 7.60716 24.6668 6.93183 23.8414 6.40656C23.091 5.95634 22.1906 5.80627 21.2901 6.03138C20.3897 6.25649 19.7143 6.78175 19.1891 7.60716C18.7389 8.35754 18.5888 9.25799 18.8139 10.1584C19.114 11.284 19.9395 12.1094 20.99 12.4846V17.5121H18.7389V26.2915H8.98399V16.4616C10.6348 15.9363 11.6103 14.2105 11.1601 12.4846C10.935 11.5841 10.4097 10.8338 9.65933 10.3835C8.90896 9.93332 8.00851 9.78325 7.10806 10.0084C6.20761 10.2335 5.45724 10.7587 5.00701 11.5091C4.55679 12.2595 4.40671 13.1599 4.63182 14.0604C4.93197 15.1859 5.75739 16.0864 6.80791 16.4616V28.5426H18.8139V33.0448H12.5858C12.2856 32.2945 11.8354 31.6942 11.085 31.2439C10.3347 30.7937 9.43422 30.6436 8.53377 30.8688C7.63332 31.0939 6.95798 31.6191 6.43272 32.4445C5.9825 33.1949 5.83242 34.0954 6.05754 34.9958C6.28265 35.8963 6.80791 36.5716 7.63332 37.0969C8.3837 37.5471 9.28414 37.6972 10.1846 37.472C11.3102 37.1719 12.1356 36.3465 12.5108 35.296H18.7389V39.0478H6.5828C5.9825 37.397 4.25664 36.4966 2.53078 36.8717C0.72988 37.322 -0.395681 39.1979 0.129581 40.9988C0.504768 42.4996 1.85544 43.5501 3.35619 43.5501C4.7819 43.5501 6.05754 42.6496 6.50776 41.299H18.7389V45.0508H12.5858C12.2856 44.3004 11.8354 43.7001 11.085 43.2499C10.3347 42.7997 9.43422 42.6496 8.53377 42.8747C6.73287 43.325 5.60731 45.2009 6.13257 47.0018C6.35769 47.9022 6.88295 48.5776 7.70836 49.1028C8.45873 49.5531 9.35918 49.7031 10.2596 49.478C11.3852 49.1779 12.2106 48.3525 12.5858 47.3019H18.7389V49.1779H27.3682V60.0583H17.4632C16.938 58.4075 15.2121 57.432 13.4862 57.8822C11.6853 58.3324 10.5598 60.1333 11.01 61.9342C11.4602 63.7351 13.2611 64.8607 15.062 64.4105C16.1876 64.1103 17.088 63.2849 17.4632 62.2344H29.6193V49.1028H34.0465V56.4565C32.3957 57.0568 31.4952 58.7827 31.8704 60.5085C32.0955 61.409 32.6208 62.0843 33.4462 62.6096C34.1966 63.0598 35.097 63.2099 35.9975 62.9848C37.7984 62.5345 38.9239 60.6586 38.3987 58.8577C38.0985 57.7321 37.2731 56.9067 36.2226 56.5315V49.2529H39.8994V62.5345C38.2486 63.1348 37.3481 64.8607 37.7233 66.5866C37.9484 67.487 38.4737 68.1623 39.2991 68.6876C39.8244 68.9877 40.4247 69.1378 41.025 69.1378C41.3251 69.1378 41.6253 69.1378 41.8504 69.0628C42.7508 68.8377 43.4262 68.3124 43.9514 67.487C44.4016 66.7366 44.5517 65.8362 44.3266 64.9357C44.0265 63.8102 43.201 62.9848 42.1505 62.6096V49.3279H45.8274V56.6066C45.077 56.9067 44.4767 57.357 44.0265 58.1073C43.5762 58.8577 43.4262 59.7582 43.6513 60.6586C43.8764 61.5591 44.4016 62.2344 45.2271 62.7596C45.9774 63.2099 46.8779 63.3599 47.7783 63.1348C49.5792 62.6846 50.7048 60.8087 50.1795 59.0078C49.8794 57.8822 49.054 57.0568 48.0034 56.6816V49.403H49.8794V41.1489H61.5102V50.9788C59.8594 51.504 58.8839 53.2299 59.3341 54.9558C59.7843 56.7567 61.5852 57.8822 63.3861 57.432C65.187 56.9818 66.3126 55.1809 65.8623 53.38C65.5622 52.2544 64.7368 51.354 63.6863 50.9788V38.6726H50.0294V34.1704H56.4076C56.7078 34.9208 57.158 35.5211 57.9084 35.9713C58.6588 36.4215 59.5592 36.5716 60.4596 36.3465C61.3601 36.1214 62.0354 35.5961 62.5607 34.7707C63.086 33.9453 63.161 33.1199 62.9359 32.2194C62.7108 31.319 62.1855 30.6436 61.3601 30.1184C60.5347 29.5931 59.7093 29.5181 58.8088 29.7432C57.6833 30.0433 56.8579 30.8688 56.4827 31.9193H50.1045V28.1674H62.4857C63.086 29.8182 64.8118 30.7187 66.5377 30.3435C67.4381 30.1184 68.1135 29.5931 68.6387 28.7677C69.0139 27.9423 69.089 27.0419 68.8638 26.2164ZM66.7628 27.0418C66.7628 27.6421 66.2375 28.1674 65.6372 28.1674C65.0369 28.1674 64.5117 27.6421 64.5117 27.0418C64.5117 26.4416 65.0369 25.9163 65.6372 25.9163C66.2375 25.9163 66.7628 26.4416 66.7628 27.0418ZM63.7613 54.0553C63.7613 54.6556 63.236 55.1809 62.6357 55.1809C62.0354 55.1809 61.5102 54.6556 61.5102 54.0553C61.5102 53.455 62.0354 52.9297 62.6357 52.9297C63.236 52.9297 63.7613 53.455 63.7613 54.0553ZM47.2531 58.5576C47.8534 58.5576 48.3786 59.0828 48.3786 59.6831C48.3786 60.2834 47.8534 60.8087 47.2531 60.8087C46.6528 60.8087 46.1275 60.2834 46.1275 59.6831C46.1275 59.0828 46.6528 58.5576 47.2531 58.5576ZM41.2501 64.5605C41.8504 64.5605 42.3756 65.0858 42.3756 65.6861C42.3756 66.2864 41.8504 66.8117 41.2501 66.8117C40.6498 66.8117 40.1245 66.2864 40.1245 65.6861C40.1245 65.0858 40.6498 64.5605 41.2501 64.5605ZM6.73287 13.1599C6.73287 12.5596 7.25813 12.0344 7.85843 12.0344C8.45873 12.0344 8.98399 12.5596 8.98399 13.1599C8.98399 13.7602 8.45873 14.2855 7.85843 14.2855C7.25813 14.2855 6.73287 13.7602 6.73287 13.1599ZM20.99 46.9268V19.9133H48.0034V46.9268H20.99ZM22.1155 10.5336C21.5152 10.5336 20.99 10.0084 20.99 9.40806C20.99 8.80776 21.5152 8.2825 22.1155 8.2825C22.7158 8.2825 23.2411 8.80776 23.2411 9.40806C23.2411 10.0084 22.7158 10.5336 22.1155 10.5336ZM28.1185 4.53063C27.5182 4.53063 26.993 4.00537 26.993 3.40507C26.993 2.80477 27.5182 2.27951 28.1185 2.27951C28.7188 2.27951 29.2441 2.80477 29.2441 3.40507C29.2441 4.00537 28.7188 4.53063 28.1185 4.53063ZM32.996 9.40806C32.996 8.80776 33.5212 8.2825 34.1215 8.2825C34.7218 8.2825 35.2471 8.80776 35.2471 9.40806C35.2471 10.0084 34.7218 10.5336 34.1215 10.5336C33.5212 10.5336 32.996 10.0084 32.996 9.40806ZM35.2471 58.5576C35.8474 58.5576 36.3726 59.0828 36.3726 59.6831C36.3726 60.2834 35.8474 60.8087 35.2471 60.8087C34.6468 60.8087 34.1215 60.2834 34.1215 59.6831C34.1215 59.0828 34.6468 58.5576 35.2471 58.5576ZM58.5087 21.0389C58.5087 20.4386 59.0339 19.9133 59.6342 19.9133C60.2345 19.9133 60.7598 20.4386 60.7598 21.0389C60.7598 21.6392 60.2345 22.1644 59.6342 22.1644C59.0339 22.1644 58.5087 21.6392 58.5087 21.0389ZM54.0064 6.40656C54.0064 5.80627 54.5317 5.281 55.132 5.281C55.7323 5.281 56.2576 5.80627 56.2576 6.40656C56.2576 7.00686 55.7323 7.53213 55.132 7.53213C54.5317 7.53213 54.0064 7.00686 54.0064 6.40656ZM10.4847 34.1704C10.4847 34.7707 9.95948 35.296 9.35918 35.296C8.75888 35.296 8.23362 34.7707 8.23362 34.1704C8.23362 33.5701 8.75888 33.0448 9.35918 33.0448C9.95948 33.0448 10.4847 33.5701 10.4847 34.1704ZM4.48175 40.1734C4.48175 40.7737 3.95649 41.299 3.35619 41.299C2.75589 41.299 2.23063 40.7737 2.23063 40.1734C2.23063 39.5731 2.75589 39.0478 3.35619 39.0478C3.95649 39.0478 4.48175 39.5731 4.48175 40.1734ZM10.4847 46.1764C10.4847 46.7767 9.95948 47.3019 9.35918 47.3019C8.75888 47.3019 8.23362 46.7767 8.23362 46.1764C8.23362 45.5761 8.75888 45.0508 9.35918 45.0508C9.95948 45.0508 10.4847 45.5761 10.4847 46.1764ZM15.3622 61.1839C15.3622 61.7842 14.8369 62.3094 14.2366 62.3094C13.6363 62.3094 13.1111 61.7842 13.1111 61.1839C13.1111 60.5836 13.6363 60.0583 14.2366 60.0583C14.8369 60.0583 15.3622 60.5836 15.3622 61.1839ZM58.5087 33.0448C58.5087 32.4445 59.0339 31.9193 59.6342 31.9193C60.2345 31.9193 60.7598 32.4445 60.7598 33.0448C60.7598 33.6451 60.2345 34.1704 59.6342 34.1704C59.0339 34.1704 58.5087 33.6451 58.5087 33.0448Z" fill="white"/>
</svg>
