<svg width="64" height="58" viewBox="0 0 64 58" fill="none" xmlns="http://www.w3.org/2000/svg">
<path d="M33.7908 40.7602C32.7138 38.8081 32.7138 36.4521 33.8581 34.5C27.0595 29.7208 20.6647 33.3557 17.6355 35.3751C17.1643 35.7117 16.4912 35.2405 16.6258 34.702C17.097 32.6152 17.9721 28.9803 18.9145 25.48C20.3281 20.2968 23.0206 13.3635 25.7805 13.0943C29.4828 12.7577 31.8387 11.8153 34.3293 11.8153C37.3585 11.8153 38.9067 10.8056 38.9067 9.39201C38.9067 7.97843 37.6277 8.24768 36.8199 7.8438C36.3487 7.57454 38.6374 5.75707 39.3779 4.14154C40.1183 2.52602 34.7332 0.641231 31.4348 0.102722C28.2038 -0.435788 26.8575 1.24706 25.7805 2.72796C24.7708 4.14154 20.3954 9.99784 12.8563 17.2677C7.26922 22.7201 2.55726 32.7499 0.537852 37.5965C-0.337226 39.6832 -0.135285 42.0392 1.07636 43.8566C7.26922 52.944 27.1268 53.8191 34.0601 52.4055C35.7429 53.3479 38.2335 54.1556 40.9934 54.4922L41.6665 44.0586H39.3779C37.0219 43.9913 34.9352 42.7796 33.7908 40.7602Z" fill="white"/>
<path d="M61.8607 29.5861H55.1294L56.0717 13.9693C56.2064 11.6806 53.2446 10.7382 52.0329 12.6903L37.4932 36.5194C36.6181 38.0003 37.6278 39.8177 39.3779 39.8177H46.1093L45.1669 55.4345C45.0323 57.7232 47.9941 58.6656 49.2058 56.7135L63.6782 32.8844C64.5533 31.4035 63.5436 29.5861 61.8607 29.5861Z" fill="white"/>
</svg>
