<svg width="100" height="139" viewBox="0 0 100 139" fill="none" xmlns="http://www.w3.org/2000/svg">
<g filter="url(#filter0_i_28_136)">
<path d="M94.4498 83.6321C96.6261 83.6321 98.4491 81.9338 98.5779 79.7347C98.9085 74.0732 99.0616 68.9565 99.0616 64.3312C99.0461 48.8698 97.4005 38.9209 94.7354 32.3298C93.3898 29.0423 91.7618 26.5484 89.7355 24.7662C88.2084 23.4067 86.3901 22.5299 84.5666 22.1957C84.1424 22.0421 83.6866 21.9541 83.2091 21.9541H81.949C79.873 23.4373 77.3361 24.3136 74.5964 24.3136C71.8567 24.3136 69.3198 23.4373 67.2444 21.9536H63.2228C62.7391 21.9536 62.2787 22.0436 61.8494 22.2009C60.0155 22.5377 58.492 23.3866 57.0653 24.3829C54.5273 26.2225 52.26 28.807 50.425 31.8105C52.8357 34.6562 54.637 37.0777 55.9577 39.2406C56.5976 37.5371 57.5753 35.7653 58.7377 34.2811C58.8976 34.0716 59.0605 33.8699 59.2245 33.6717V47.0029C60.6492 47.5559 62.9279 48.069 66.4876 48.069C68.5734 48.069 70.8909 47.8999 73.4175 47.5698L76.3708 39.089C76.9336 37.4719 78.7065 36.6158 80.3225 37.1786L87.2069 39.5763V35.7984C87.6611 36.9546 88.105 38.3276 88.5069 39.9504C88.5245 40.0212 88.5411 40.0973 88.5597 40.1697C89.6766 40.9441 90.1939 42.3947 89.7257 43.7391L89.4458 44.5436C90.2673 49.5299 90.7872 56.0341 90.7836 64.3307C90.7852 68.7739 90.6382 73.7318 90.3154 79.252C90.1815 81.5334 91.9232 83.4909 94.2051 83.6249C94.2863 83.6295 94.3686 83.6321 94.4498 83.6321Z" fill="#44B58D"/>
<path d="M84.8476 57.7448C84.2847 59.3614 82.5109 60.2176 80.8948 59.6542L75.4004 57.7412C72.1874 58.1871 69.2543 58.4122 66.5379 58.4142H66.5368H66.5353C63.8308 58.4101 61.401 58.1845 59.2241 57.7371V60.8083V131.452C59.2241 134.986 62.0885 137.848 65.6196 137.848C69.1518 137.848 72.0162 134.986 72.0162 131.452V74.604H74.4139V131.452C74.4139 134.986 77.2783 137.848 80.8095 137.848C84.3417 137.848 87.206 134.986 87.206 131.452V50.9706L84.8476 57.7448Z" fill="#44B58D"/>
<path d="M74.5961 23.279C81.0244 23.279 86.2356 18.0678 86.2356 11.6395C86.2356 5.21118 81.0244 0 74.5961 0C68.1677 0 62.9565 5.21118 62.9565 11.6395C62.9565 18.0678 68.1677 23.279 74.5961 23.279Z" fill="#44B58D"/>
<path d="M87.4744 40.7646L79.9837 38.1563C78.9046 37.7807 77.7251 38.3503 77.3491 39.4299L74.5701 47.4084C75.8654 47.2196 77.2073 46.9941 78.6066 46.724C78.932 46.6614 79.2636 46.6299 79.5926 46.6299C82.0638 46.6299 84.1962 48.3929 84.667 50.8237C84.9297 52.1806 84.6473 53.5572 83.8729 54.7025C83.0985 55.8468 81.9242 56.6212 80.5673 56.8825C79.5461 57.0796 78.5601 57.2508 77.5922 57.4091L81.2361 58.678C82.3153 59.0541 83.4947 58.4835 83.8708 57.4044L88.7485 43.3993C89.1231 42.3201 88.5535 41.1402 87.4744 40.7646ZM80.7328 41.2467C80.5605 41.7413 80.0199 42.003 79.5249 41.8308C79.0308 41.6585 78.7691 41.1174 78.9413 40.6229C79.1136 40.1283 79.6547 39.8671 80.1488 40.0393C80.6433 40.2116 80.9051 40.7522 80.7328 41.2467Z" fill="#44B58D"/>
<path d="M66.5377 57.3801C70.4569 57.3775 75.0154 56.8995 80.3706 55.8659C82.6152 55.4329 84.0834 53.2628 83.6504 51.0192C83.2169 48.7746 81.0467 47.3065 78.8021 47.74C73.8422 48.6981 69.7771 49.1036 66.5377 49.1026C62.8881 49.1083 60.3709 48.5853 58.6989 47.9102C58.6198 48.7275 58.3999 49.7223 57.8697 50.7171C57.3006 51.8133 56.3901 52.7926 55.31 53.462C54.5956 53.8965 53.8983 54.1919 53.2185 54.3942C54.6421 55.257 56.2618 55.9259 58.0854 56.4091C60.5343 57.0573 63.3444 57.3749 66.5377 57.3801Z" fill="#44B58D"/>
<path d="M49.98 53.7853C51.4482 53.7631 53.0461 53.627 54.7652 52.5821C55.6084 52.0591 56.4335 51.237 56.957 50.2309C57.4909 49.2273 57.7061 48.1182 57.7025 47.1094C57.6916 45.5999 57.299 44.2559 56.7087 42.8633C55.0792 39.1563 51.8015 34.6976 45.8814 28.241L46.3123 27.18L47.7918 23.5345C48.2217 22.4761 47.7116 21.2687 46.6527 20.8393L39.3032 17.856C38.2438 17.4261 37.0374 17.9362 36.6075 18.9956L36.5124 19.2294C36.8719 19.6728 37.204 20.1404 37.502 20.6303L37.7834 19.9376L46.2916 23.3912L41.7031 34.6955L37.8558 33.1337C37.6773 33.4684 37.4839 33.7928 37.2775 34.1094C37.5956 34.3644 37.727 34.8052 37.5661 35.2019C37.369 35.6872 36.8155 35.9215 36.3303 35.7244C36.2568 35.6944 36.1911 35.6546 36.1295 35.6096C35.8114 35.9676 35.4731 36.3085 35.1161 36.6282L39.5184 38.415C40.3901 38.7688 41.3565 38.4781 41.912 37.7756C42.031 37.625 42.1386 37.4626 42.2142 37.2753L42.4175 36.7746C44.5948 39.2872 46.2057 41.3652 47.3242 43.0263C47.961 43.9668 48.4364 44.7727 48.7685 45.4204C47.0867 45.1923 44.6859 44.5492 42.7128 43.8509C41.4325 43.4127 40.2825 42.9678 39.4646 42.6373C39.088 42.4857 38.7854 42.359 38.5671 42.2664C38.2624 42.1003 37.9324 41.9767 37.5858 41.8944C37.0648 41.7537 36.5346 41.719 36.0194 41.7816H33.3883H17.3398C17.1768 41.7604 16.9269 41.7382 16.5995 41.7382C15.6823 41.7346 14.0698 41.9187 12.2349 42.8442C9.45335 44.2233 6.45294 47.2424 4.35421 52.5903C2.22961 57.9595 0.802867 65.7218 0.795625 77.4435C0.795625 80.4739 0.893397 83.7692 1.10343 87.3562C1.21103 89.1891 2.49758 90.6696 4.18246 91.1135V92.9566H2.06925C0.926505 92.9566 0 93.8832 0 95.0259V116.064C0 117.207 0.926505 118.133 2.06925 118.133H8.62151C9.76425 118.133 10.6908 117.207 10.6908 116.064V95.0259C10.6908 93.8832 9.76425 92.9566 8.62151 92.9566H6.50985V91.0473C8.25939 90.4808 9.47818 88.7939 9.36592 86.8731C9.16314 83.4319 9.07312 80.298 9.07312 77.444C9.0545 64.9163 10.8811 57.8798 12.6752 54.2069V131.857C12.6752 135.391 15.5395 138.253 19.0707 138.253C22.6029 138.253 25.4672 135.391 25.4672 131.857V85.1592H27.865V131.857C27.865 135.391 30.7293 138.253 34.2605 138.253C37.7927 138.253 40.6571 135.391 40.6571 131.857V52.9762V51.8878C43.4826 52.8143 46.7448 53.7496 49.98 53.7853ZM24.6995 46.0158H26.6658H28.6311L29.614 49.8957L29.4645 50.1316C28.6544 50.8072 27.6622 51.1455 26.6648 51.1465C25.6674 51.1455 24.6768 50.8077 23.8672 50.1336L23.7167 49.8957L24.6995 46.0158ZM26.6658 79.3824L21.7514 73.1747L24.5821 52.3162C25.2536 52.5676 25.9587 52.699 26.6648 52.6985H26.6658C26.6658 52.6985 26.6679 52.6985 26.669 52.6985C27.374 52.6985 28.0791 52.5671 28.7491 52.3156L31.5808 73.1747L26.6658 79.3824Z" fill="#44B58D"/>
<path d="M26.6656 38.8345C33.0939 38.8345 38.3051 33.6234 38.3051 27.195C38.3051 20.7667 33.0939 15.5555 26.6656 15.5555C20.2373 15.5555 15.0261 20.7667 15.0261 27.195C15.0261 33.6234 20.2373 38.8345 26.6656 38.8345Z" fill="#44B58D"/>
</g>
<defs>
<filter id="filter0_i_28_136" x="0" y="0" width="99.0615" height="142.253" filterUnits="userSpaceOnUse" color-interpolation-filters="sRGB">
<feFlood flood-opacity="0" result="BackgroundImageFix"/>
<feBlend mode="normal" in="SourceGraphic" in2="BackgroundImageFix" result="shape"/>
<feColorMatrix in="SourceAlpha" type="matrix" values="0 0 0 0 0 0 0 0 0 0 0 0 0 0 0 0 0 0 127 0" result="hardAlpha"/>
<feOffset dy="4"/>
<feGaussianBlur stdDeviation="2"/>
<feComposite in2="hardAlpha" operator="arithmetic" k2="-1" k3="1"/>
<feColorMatrix type="matrix" values="0 0 0 0 0 0 0 0 0 0 0 0 0 0 0 0 0 0 0.25 0"/>
<feBlend mode="normal" in2="shape" result="effect1_innerShadow_28_136"/>
</filter>
</defs>
</svg>
