<svg width="62" height="62" viewBox="0 0 62 62" fill="none" xmlns="http://www.w3.org/2000/svg">
<path d="M35.4352 6.64286C35.7286 6.64319 36.01 6.75994 36.2175 6.9675C36.425 7.17505 36.5417 7.45647 36.542 7.75V8.85714H34.3283V7.75C34.3286 7.45647 34.4454 7.17505 34.6529 6.9675C34.8604 6.75994 35.1417 6.64319 35.4352 6.64286ZM31.0077 6.64286C31.3012 6.64319 31.5825 6.75994 31.79 6.9675C31.9975 7.17505 32.1143 7.45647 32.1146 7.75V8.85714C31.337 8.85653 30.5731 9.06211 29.9008 9.45292V7.75C29.9012 7.45647 30.0179 7.17505 30.2254 6.9675C30.4329 6.75994 30.7143 6.64319 31.0077 6.64286ZM31.0077 18.4768C30.5027 17.7172 29.8477 17.0689 29.0831 16.5716C29.093 16.5604 29.1028 16.5492 29.1123 16.5378C29.8042 17.1789 30.6831 17.5814 31.6204 17.6865C31.3967 17.9343 31.1919 18.1985 31.0077 18.4768ZM26.5802 6.64286C26.8737 6.64319 27.155 6.75994 27.3626 6.9675C27.5701 7.17505 27.6868 7.45647 27.6871 7.75V14.3929C27.6871 14.6865 27.5705 14.9681 27.3629 15.1757C27.1553 15.3834 26.8738 15.5 26.5802 15.5C26.2867 15.5 26.0051 15.3834 25.7976 15.1757C25.59 14.9681 25.4734 14.6865 25.4734 14.3929V7.75C25.4737 7.45647 25.5904 7.17505 25.7979 6.9675C26.0054 6.75994 26.2868 6.64319 26.5802 6.64286ZM21.0459 7.75C21.1012 6.28511 23.2043 6.28193 23.2596 7.75V14.3929C23.2596 14.6865 23.143 14.9681 22.9354 15.1757C22.7279 15.3834 22.4463 15.5 22.1528 15.5C21.8592 15.5 21.5777 15.3834 21.3701 15.1757C21.1625 14.9681 21.0459 14.6865 21.0459 14.3929C21.0459 12.7371 21.0459 9.40532 21.0459 7.75ZM15.0113 22.0685C11.4568 24.8959 5.76892 25.3559 2.45828 21.9131C0.53385 19.9788 -0.111731 17.6613 0.0154208 14.9857C-0.077141 10.5011 3.87313 6.54972 8.35664 6.64286C13.1845 6.66749 15.0746 9.26443 18.8322 11.6701V19.3303C17.4807 20.2236 16.1975 21.1431 15.0113 22.0685ZM39.8627 62H22.1528V45.3929H39.8627V62ZM42.0764 43.1786H19.939V34.3214H42.0764V43.1786ZM40.9695 23.8986L39.4043 25.4643H37.6489C36.1823 25.5185 36.1823 27.6246 37.6489 27.6786H38.7558V32.1071H23.2596V27.6786H24.3665C25.8331 27.6243 25.8331 25.5183 24.3665 25.4643H22.6112L21.0459 23.8986V17.7143H25.4734C26.6472 17.7156 27.7726 18.1826 28.6026 19.0128C29.4326 19.8431 29.8995 20.9687 29.9008 22.1429V26.5714C29.9008 26.8651 30.0175 27.1467 30.225 27.3543C30.4326 27.5619 30.7142 27.6786 31.0077 27.6786C31.3013 27.6786 31.5828 27.5619 31.7904 27.3543C31.998 27.1467 32.1146 26.8651 32.1146 26.5714V22.1429C32.1159 20.9687 32.5828 19.8431 33.4128 19.0128C34.2428 18.1826 35.3682 17.7156 36.542 17.7143C38.0064 17.6614 38.0103 15.5545 36.542 15.5H32.1146C31.5275 15.5 30.9644 15.2667 30.5492 14.8514C30.1341 14.4362 29.9008 13.873 29.9008 13.2857C29.9008 12.6984 30.1341 12.1352 30.5492 11.72C30.9644 11.3047 31.5275 11.0714 32.1146 11.0714H38.7558C39.3427 11.0721 39.9054 11.3056 40.3204 11.7207C40.7354 12.1359 40.9688 12.6987 40.9695 13.2857V23.8986ZM62 12.8272L57.1142 17.7143H43.1833V14.3929C43.4768 14.3929 43.7584 14.2762 43.9659 14.0686C44.1735 13.861 44.2901 13.5793 44.2901 13.2857V4.88748L49.1761 0H54.9004L50.6072 4.29433C50.5043 4.39713 50.4228 4.51918 50.3671 4.65351C50.3115 4.78784 50.2829 4.93181 50.2828 5.07722V8.2085C50.2829 8.3539 50.3115 8.49788 50.3671 8.6322C50.4228 8.76653 50.5043 8.88858 50.6072 8.99138L53.0109 11.3957C53.1136 11.4985 53.2356 11.5801 53.3699 11.6357C53.5042 11.6914 53.6482 11.7201 53.7935 11.7201H56.924C57.0694 11.7201 57.2134 11.6914 57.3476 11.6357C57.4819 11.5801 57.604 11.4985 57.7067 11.3957L62 7.10135V12.8272ZM11.8668 9.1814C11.764 9.07859 11.642 8.99704 11.5077 8.94141C11.3734 8.88577 11.2295 8.85714 11.0841 8.85714H6.65663C6.51127 8.85714 6.36733 8.88577 6.23304 8.94141C6.09874 8.99704 5.97672 9.07859 5.87393 9.1814L2.55333 12.5028C2.45055 12.6056 2.36902 12.7277 2.3134 12.862C2.25778 12.9963 2.22915 13.1403 2.22916 13.2857V17.7143C2.22915 17.8597 2.25778 18.0036 2.3134 18.138C2.36902 18.2723 2.45055 18.3944 2.55333 18.4972L5.87393 21.8186C5.97672 21.9214 6.09874 22.003 6.23304 22.0586C6.36733 22.1142 6.51127 22.1429 6.65663 22.1429H11.0841C11.2295 22.1429 11.3734 22.1142 11.5077 22.0586C11.642 22.003 11.764 21.9214 11.8668 21.8186L15.1874 18.4972C15.2902 18.3944 15.3717 18.2723 15.4273 18.138C15.4829 18.0036 15.5116 17.8597 15.5116 17.7143V13.2857C15.5116 13.1403 15.4829 12.9963 15.4273 12.862C15.3717 12.7277 15.2902 12.6056 15.1874 12.5028L11.8668 9.1814ZM13.2978 17.2558L10.6257 19.9286H7.11501L4.44289 17.2558V13.7442L7.11501 11.0714H10.6257L13.2978 13.7442V17.2558Z" fill="white"/>
</svg>
