<svg width="31" height="31" viewBox="0 0 31 31" fill="none" xmlns="http://www.w3.org/2000/svg">
<path d="M16.8279 2.50464C18.281 2.5084 19.0186 2.51591 19.6553 2.53344L19.9059 2.54221C20.1953 2.55222 20.4807 2.56475 20.8256 2.57977C22.1999 2.64239 23.1377 2.85277 23.9605 3.16208C24.813 3.48016 25.5311 3.91094 26.2493 4.60595C26.9061 5.23196 27.4143 5.9892 27.7386 6.82498C28.0576 7.62267 28.2746 8.53182 28.3392 9.86549C28.3547 10.1986 28.3676 10.4753 28.378 10.7571L28.3857 11.0001C28.4051 11.6162 28.4128 12.3312 28.4154 13.74L28.4167 14.6742V16.3147C28.4199 17.2281 28.41 18.1415 28.387 19.0547L28.3793 19.2976C28.3689 19.5794 28.356 19.8561 28.3405 20.1892C28.2759 21.5229 28.0563 22.4308 27.7386 23.2297C27.4153 24.066 26.9069 24.8234 26.2493 25.4488C25.6034 26.0853 24.8224 26.578 23.9605 26.8926C23.1377 27.2019 22.1999 27.4123 20.8256 27.4749C20.5191 27.4889 20.2125 27.5015 19.9059 27.5125L19.6553 27.52C19.0186 27.5376 18.281 27.5463 16.8279 27.5488L15.8643 27.5501H14.1735C13.2309 27.5532 12.2884 27.5436 11.3461 27.5213L11.0955 27.5138C10.7888 27.5025 10.4823 27.4896 10.1758 27.4749C8.80147 27.4123 7.86372 27.2019 7.03964 26.8926C6.17767 26.5788 5.39692 26.086 4.75209 25.4488C4.0947 24.823 3.58601 24.0657 3.26151 23.2297C2.94247 22.432 2.72547 21.5229 2.66089 20.1892C2.6465 19.8921 2.63358 19.5949 2.62214 19.2976L2.61568 19.0547C2.59188 18.1415 2.58111 17.2281 2.58339 16.3147V13.74C2.57978 12.8266 2.58926 11.9132 2.6118 11.0001L2.62085 10.7571C2.63118 10.4753 2.6441 10.1986 2.6596 9.86549C2.72418 8.53182 2.94118 7.62393 3.26022 6.82498C3.58458 5.98834 4.09428 5.23086 4.75339 4.60595C5.39805 3.96914 6.17828 3.47639 7.03964 3.16208C7.86372 2.85277 8.80018 2.64239 10.1758 2.57977C10.5194 2.56475 10.8061 2.55222 11.0955 2.54221L11.3461 2.53469C12.2879 2.51244 13.2301 2.50284 14.1722 2.50589L16.8279 2.50464ZM15.5001 8.766C13.7872 8.766 12.1445 9.42567 10.9333 10.5999C9.72215 11.7741 9.04172 13.3667 9.04172 15.0274C9.04172 16.688 9.72215 18.2806 10.9333 19.4548C12.1445 20.629 13.7872 21.2887 15.5001 21.2887C17.2129 21.2887 18.8556 20.629 20.0668 19.4548C21.278 18.2806 21.9584 16.688 21.9584 15.0274C21.9584 13.3667 21.278 11.7741 20.0668 10.5999C18.8556 9.42567 17.2129 8.766 15.5001 8.766ZM15.5001 11.2705C16.0089 11.2705 16.5128 11.3676 16.983 11.5563C17.4532 11.745 17.8804 12.0217 18.2403 12.3704C18.6002 12.7192 18.8857 13.1333 19.0805 13.5891C19.2753 14.0449 19.3756 14.5334 19.3757 15.0267C19.3758 15.5201 19.2756 16.0086 19.081 16.4644C18.8863 16.9203 18.601 17.3345 18.2412 17.6834C17.8814 18.0323 17.4543 18.3091 16.9842 18.498C16.5141 18.6868 16.0102 18.7841 15.5013 18.7842C14.4736 18.7842 13.488 18.3884 12.7613 17.6838C12.0346 16.9793 11.6263 16.0237 11.6263 15.0274C11.6263 14.031 12.0346 13.0754 12.7613 12.3709C13.488 11.6663 14.4736 11.2705 15.5013 11.2705M22.2826 6.88759C21.8544 6.88759 21.4437 7.05251 21.1409 7.34607C20.8381 7.63963 20.668 8.03778 20.668 8.45293C20.668 8.86808 20.8381 9.26623 21.1409 9.55979C21.4437 9.85335 21.8544 10.0183 22.2826 10.0183C22.7108 10.0183 23.1215 9.85335 23.4243 9.55979C23.7271 9.26623 23.8972 8.86808 23.8972 8.45293C23.8972 8.03778 23.7271 7.63963 23.4243 7.34607C23.1215 7.05251 22.7108 6.88759 22.2826 6.88759Z" fill="#44B58D"/>
</svg>
