<svg width="38" height="36" viewBox="0 0 38 36" fill="none" xmlns="http://www.w3.org/2000/svg">
<path d="M9.94664 2.55485C9.25694 1.01328 8.5311 0.982169 7.87522 0.955134C7.33814 0.931879 6.72417 0.933623 6.11078 0.933623C5.49681 0.933623 4.49926 1.16589 3.65606 2.09176C2.812 3.01851 0.433594 5.25804 0.433594 9.81298C0.433594 14.3682 3.73266 18.7703 4.19256 19.3886C4.65304 20.0057 10.5615 29.6522 19.919 33.3633C27.6959 36.4473 29.2786 35.8339 30.9664 35.6793C32.6545 35.5252 36.4135 33.4403 37.1804 31.2784C37.9478 29.1168 37.9478 27.2639 37.7177 26.8766C37.4876 26.4909 36.8737 26.2592 35.953 25.7964C35.0321 25.3333 30.5059 23.0935 29.6621 22.7845C28.8181 22.4758 28.2044 22.3217 27.5904 23.2487C26.9765 24.1743 25.2135 26.2592 24.6761 26.8766C24.1393 27.4955 23.6019 27.5726 22.6816 27.1095C21.7603 26.645 18.7954 25.6685 15.2778 22.5147C12.541 20.0607 10.6933 17.0301 10.1562 16.1031C9.61913 15.1775 10.0987 14.6758 10.5603 14.2144C10.974 13.7996 11.4813 13.1333 11.942 12.5929C12.4011 12.0522 12.5543 11.6665 12.8613 11.049C13.1685 10.431 13.0148 9.89031 12.7849 9.42723C12.5543 8.96415 10.7653 4.38537 9.94664 2.55485Z" fill="white"/>
</svg>
