<svg width="74" height="75" viewBox="0 0 74 75" fill="none" xmlns="http://www.w3.org/2000/svg">
<path d="M0.309297 37.0395C0.307273 43.5677 2.0032 49.9407 5.22741 55.5581L0 74.752L19.5322 69.6017C24.914 72.5526 30.9733 74.1084 37.139 74.1108H37.1549C57.461 74.1108 73.9913 57.4922 74 37.0692C74.0035 27.1715 70.174 17.8642 63.218 10.8628C56.2611 3.86221 47.0111 0.00406977 37.1549 0C16.8454 0 0.317391 16.6163 0.309297 37.0395ZM11.9415 54.5907L11.2122 53.4265C8.14636 48.5241 6.52819 42.859 6.5305 37.0419C6.53686 20.0666 20.2743 6.25581 37.1665 6.25581C45.347 6.2593 53.0349 9.46628 58.8173 15.2849C64.5994 21.1041 67.7811 28.8395 67.7791 37.0669C67.7716 54.0422 54.0339 67.8547 37.1549 67.8547H37.1428C31.6469 67.8517 26.2567 66.3674 21.556 63.5625L20.4373 62.8954L8.84647 65.9515L11.9415 54.5907Z" fill="url(#paint0_linear_0_117)"/>
<defs>
<linearGradient id="paint0_linear_0_117" x1="3700" y1="7475.2" x2="3700" y2="0" gradientUnits="userSpaceOnUse">
<stop stop-color="#F9F9F9"/>
<stop offset="1" stop-color="white"/>
</linearGradient>
</defs>
</svg>
